<svg xmlns="http://www.w3.org/2000/svg" width="32" height="27" viewBox="0 0 32 27">
    <path fill="#000" fill-rule="evenodd" d="M14.571 16.071a3.644 3.644 0 0 0-3.642-3.642h-4.25a1.822 1.822 0 0 1-1.822-1.822V10a4.867 4.867 0 0 1 4.857-4.857h1.215c.664 0 1.214-.55 1.214-1.214V1.5c0-.664-.55-1.214-1.214-1.214H9.714C4.364.286 0 4.65 0 10v13.357A3.644 3.644 0 0 0 3.643 27h7.286a3.644 3.644 0 0 0 3.642-3.643v-7.286zm17 0a3.644 3.644 0 0 0-3.642-3.642h-4.25a1.822 1.822 0 0 1-1.822-1.822V10a4.867 4.867 0 0 1 4.857-4.857h1.215c.664 0 1.214-.55 1.214-1.214V1.5c0-.664-.55-1.214-1.214-1.214h-1.215C21.364.286 17 4.65 17 10v13.357A3.644 3.644 0 0 0 20.643 27h7.286a3.644 3.644 0 0 0 3.642-3.643v-7.286z"/>
</svg>
