<svg xmlns="http://www.w3.org/2000/svg" width="20" height="17" viewBox="0 0 20 17">
    <g fill="none" fill-rule="evenodd">
        <path stroke="#000" d="M15.098 6.508V5.474a4.975 4.975 0 0 0-9.949 0v6.262s-.024 3.055 2.785 3.055"/>
        <path fill="#FFF" stroke="#000" d="M4.27 6.352a2.77 2.77 0 1 0 0 5.54c.31 0 .602-.062.88-.156V6.508a2.73 2.73 0 0 0-.88-.156zM15.978 6.352c-.31 0-.602.062-.88.156v5.228c.278.094.57.156.88.156a2.77 2.77 0 0 0 0-5.54zM11.997 14.79c0 .582-.472 1.054-1.053 1.054h-1.64a1.054 1.054 0 0 1 0-2.107h1.64c.58 0 1.053.47 1.053 1.053z"/>
        <path d="M-2-3h22v22H-2z"/>
    </g>
</svg>
