<svg xmlns="http://www.w3.org/2000/svg" width="49" height="40" viewBox="0 0 49 40">
    <g fill="none" fill-rule="evenodd">
        <path stroke="#000" stroke-width="2" d="M14.38 14.955V9.476l-5.476.001M6.654 17.205l7.372-7.372M35.616 16.806h5.48l-.002-5.477M33.366 9.08l7.372 7.371"/>
        <path fill="#FFF" d="M1 38.514h11.308V20.849H1z"/>
        <path stroke="#000" stroke-width="2" d="M1 38.514h11.308V20.849H1z"/>
        <path stroke="#4BA1FF" stroke-width="2" d="M4.091 31.137h5.125M4.091 34.512h5.125"/>
        <path fill="#FFF" d="M36.598 38.514h11.308V20.849H36.598z"/>
        <path stroke="#000" stroke-width="2" d="M36.598 38.514h11.308V20.849H36.598z"/>
        <path stroke="#4BA1FF" stroke-width="2" d="M39.69 31.137h5.125M39.69 34.512h5.125"/>
        <path fill="#FFF" d="M18.799 18.665h11.308V1H18.799z"/>
        <path stroke="#000" stroke-width="2" d="M18.799 18.665h11.308V1H18.799z"/>
        <path stroke="#4BA1FF" stroke-width="2" d="M21.89 11.288h5.126M21.89 14.663h5.126"/>
    </g>
</svg>
