<svg xmlns="http://www.w3.org/2000/svg" width="41" height="37" viewBox="0 0 41 37">
    <g fill="none" fill-rule="evenodd">
        <path stroke="#221F20" stroke-width="2" d="M39.962 2.923c0 8.943-1.625 16.192-19.369 16.192S1.224 11.865 1.224 2.923h38.738z"/>
        <path fill="#FEFEFE" d="M29.16 29.816h-6.133v-5.144c6.715-1.875 9.71-11.657 9.71-23.448H8.45c0 11.791 2.994 21.572 9.71 23.448v5.144h-6.135v2.428H9.98v2.429h21.225v-2.429H29.16v-2.428z"/>
        <path stroke="#221F20" stroke-width="2" d="M29.16 29.816h-6.133v-5.144c6.715-1.875 9.71-11.657 9.71-23.448H8.45c0 11.791 2.994 21.572 9.71 23.448v5.144h-6.135v2.428H9.98v3.429h21.225v-3.429H29.16v-2.428z"/>
        <path stroke="#4BA1FF" stroke-width="2" d="M14.385 5.938s-.045 7.546 2.441 11.332"/>
    </g>
</svg>
