<svg xmlns="http://www.w3.org/2000/svg" width="70" height="21" viewBox="0 0 70 21">
    <g fill="#FFF" fill-rule="evenodd">
        <path d="M11.234 11.269c-.095.095-.239.098-.239.098h-7.38s-.208.01-.293-.054c-.141-.11-.119-.263-.119-.263 0-.95.819-3.802 4.038-3.802 3.464 0 4.069 2.852 4.069 3.802 0 0 .018.124-.076.219M7.241 4.397C2.204 4.397 0 8.601 0 12.634c0 4.474 2.519 8.237 7.556 8.237 3.778 0 6.37-2.217 6.685-4.751 0 0 .027-.152-.069-.242-.087-.083-.246-.076-.246-.076h-2.52s-.107.007-.187.087c-.081.082-.127.23-.127.23-.63 1.584-2.276 1.9-3.536 1.9-3.778 0-4.353-3.003-4.353-3.636 0 0-.01-.089.09-.205.083-.097.321-.111.321-.111H14.08s.15-.004.231-.09c.088-.095.084-.228.084-.228v-1.115c0-4.435-2.115-8.237-7.153-8.237M26.841 14v.95c0 2.032-1.376 3.168-4.093 3.168-1.89 0-2.833-.634-2.833-2.218s1.258-2.534 4.093-2.534c1.573 0 2.518.317 2.518.317s.108.033.191.102a.343.343 0 0 1 .095.102c.034.06.03.113.03.113m-3.229-9.54c-4.722 0-6.296 2.534-6.296 4.751 0 0-.006.13.095.243.069.077.219.074.219.074h2.52s.094.005.208-.103a.388.388 0 0 0 .075-.099c.028-.047.03-.115.03-.115.051-1.234.945-1.9 3.15-1.9 2.203 0 3.147.634 3.147 2.851v.633s.01.146-.075.24c-.102.115-.24.078-.24.078s-1.259-.318-2.833-.318c-4.093 0-6.926 1.584-6.926 5.069 0 3.169 2.27 4.977 5.444 4.977 3.167 0 3.922-.744 4.457-1.284.121-.122.24-.271.24-.271l-.004 1.013s.019.134.111.228c.093.093.204.089.204.089h2.456s.133-.005.22-.093c.095-.097.095-.224.095-.224v-8.87c0-4.752-1.574-6.969-6.297-6.969M40.287 11.43c-3.148-.635-4.408-.952-4.408-2.535 0-1.267 1.26-1.583 2.834-1.583 2.204 0 2.833.949 2.833 1.9 0 0-.004.148.073.228.099.102.242.088.242.088h2.52s.122.004.217-.1c.1-.108.097-.217.097-.217 0-3.167-2.518-4.75-5.982-4.75-4.407 0-5.982 2.216-5.982 4.434 0 2.851 1.89 4.118 5.037 4.751 3.149.633 4.093.952 4.093 2.535 0 1.268-.944 1.9-3.148 1.9-2.205 0-3.149-.95-3.149-2.533 0 0 .004-.128-.1-.22-.11-.096-.214-.097-.214-.097h-2.52s-.122.01-.21.096c-.102.1-.103.22-.103.22 0 3.486 2.204 5.386 6.296 5.386 4.408 0 6.297-2.218 6.297-4.752 0-2.851-1.574-4.118-4.723-4.751M50.97 4.874h-2.52s-.118 0-.218.1c-.099.1-.096.216-.096.216v15.012s-.006.113.101.222c.106.108.214.095.214.095h2.519s.117 0 .224-.109c.088-.09.09-.208.09-.208V5.19s.011-.09-.099-.209a.327.327 0 0 0-.215-.107M61.899 17.943c-2.646 0-4.79-2.157-4.79-4.819 0-2.66 2.144-4.82 4.79-4.82 2.645 0 4.789 2.16 4.789 4.82 0 2.662-2.144 4.82-4.79 4.82m.882-12.296a7.452 7.452 0 0 0-1.053-.056L66.012.358s.048-.059-.01-.163c-.04-.07-.155-.055-.155-.055L62.62.141s-.294-.012-.45.041a.79.79 0 0 0-.27.174l-5.025 6.202c-.698.88-1.288 1.75-1.771 2.624-.484.874-.795 1.875-.932 3.007-.137 1.134-.075 2.175.186 3.13.262.955.69 1.789 1.288 2.496.353.42.796.873 1.275 1.285a7.578 7.578 0 0 0 2.678 1.529c.29.095.59.172.908.228.17.032.341.058.514.076 4.249.466 8.102-2.516 8.62-6.787.519-4.27-2.617-7.976-6.86-8.498"/>
    </g>
</svg>
