<svg xmlns="http://www.w3.org/2000/svg" width="62" height="25" viewBox="0 0 62 25">
    <g fill="none" fill-rule="evenodd">
        <path fill="#141E41" d="M7.249 0L0 3.553v7.102L21.747 21.31V7.104l-7.248 3.553-.002-7.104L7.25 7.106z"/>
        <path fill="#418CFA" d="M14.499 24.862l7.248-3.553-7.248-3.55z"/>
        <path fill="#2350A0" d="M0 17.758l7.249-3.551L0 10.655z"/>
        <path fill="#326ED2" d="M7.249 21.31v-7.103l7.25 3.552z"/>
        <path fill="#000" d="M30.175 18.657h8.428v-1.823H32.26v-3.76h6.079v-1.822H32.26V8.023h6.343v-1.82h-8.428zM40.879 6.09v12.567h1.875V9.024l3.282 1.604 3.28-1.604v9.633h1.877V6.09l-5.157 2.534zM59.173 11.899c-.396-.214-.928-.467-1.443-.711-.422-.2-.838-.397-1.167-.567-.697-.365-1.183-.982-1.183-1.506 0-.661.571-1.33 1.65-1.358.023 0 .043-.004.066-.004 1.128 0 1.694.463 1.97.847.01.019.024.03.037.045l1.652-.81c-.287-.793-1.668-1.773-3.643-1.773-.028 0-.053.004-.083.004-2.31.037-3.52 1.566-3.52 3.08 0 1.243.765 2.356 2.045 2.978l.369.179c.75.364 1.526.742 2.239 1.133.84.466 1.322 1.127 1.322 1.817 0 .996-.97 1.748-2.256 1.748-1.118 0-2.031-.436-2.448-1.178l-.004-.005-1.702.832c.335.818 1.643 2.136 4.136 2.136 2.734 0 4.21-1.83 4.21-3.548 0-.976-.39-2.347-2.247-3.34"/>
    </g>
</svg>
