<svg xmlns="http://www.w3.org/2000/svg" width="168" height="60" viewBox="0 0 168 60">
    <g fill="none" fill-rule="evenodd">
        <path fill="#141E41" d="M17.397 0L0 8.527v17.046l52.192 25.57-.001-34.094-17.394 8.527-.003-17.05-17.397 8.528z"/>
        <path fill="#418CFA" d="M34.797 59.669l17.395-8.526-17.395-8.52z"/>
        <path fill="#2350A0" d="M0 42.62l17.397-8.524L0 25.573z"/>
        <path fill="#326ED2" d="M17.397 51.143V34.096l17.4 8.526z"/>
        <g fill="#000">
            <path d="M81.392 26.72h13.722v-2.074H81.392v2.073zm0-5.005h13.722v-2.041H81.392v2.04zm20.29 10.138s-.067 1.053-.131 1.547c-.688 7.11-1.44 10.105-2.518 11.193-.783.854-1.633 1.152-2.645 1.25-.915.099-2.45.099-4.083.066-.033-.988-.426-2.404-1.014-3.325 1.372.132 2.646.132 3.235.132.587 0 .88-.033 1.208-.396.621-.592 1.275-2.6 1.732-7.043h-2.81c-1.699 4.41-4.476 8.328-7.481 10.83-.654-.66-2.19-1.877-3.072-2.403 2.744-1.976 5.064-4.97 6.535-8.427h-2.81c-2.418 4.081-6.076 7.604-9.736 9.875-.621-.79-2.059-2.173-2.877-2.798 3.202-1.613 6.177-4.148 8.235-7.077h-2.843c-1.6 1.547-3.365 2.93-5.064 3.982-.653-.723-2.123-2.172-2.94-2.764 2.973-1.58 5.846-3.951 7.84-6.65H77.57v-13.33h21.497v13.33h-14.08c-.426.691-.883 1.35-1.373 2.008h18.068zM124.455 26.554h4.968V20.99h-4.968v5.563zm-3.592 3.457h12.416V17.535h-12.416v12.476zm-7.875 11.651h13.494v-1.941h-13.494v1.941zm0-4.772h13.494v-1.844h-13.494v1.844zm-3.821-4.904h21.302v13.858h-3.987V44.79h-13.494v1.087h-3.821V31.986zm1.86-9.218c.035-.262.035-.493.035-.724V20.63h-1.633c-.46.79-.98 1.513-1.504 2.138h3.103zm6.078 8.723c-.915-.823-2.744-2.172-4.214-3.193-1.176 1.68-3.072 3.358-6.013 4.74-.522-.79-1.599-2.008-2.449-2.633 3.332-1.316 5-2.93 5.815-4.575h-5.423v-3.062h2.19a35.357 35.357 0 0 0-2.484-1.416c1.668-1.579 2.94-3.982 3.595-6.418l3.43.724c-.198.626-.394 1.284-.655 1.943h8.104v3.029h-4.248v1.479c0 .23 0 .43-.032.66h5.031v3.06h-5.39c1.371.725 4.639 2.602 5.489 3.16l-2.746 2.502zM150.629 20.727h15.877v-3.719H150.63v3.719zm16.696 9.052h-4.476v11.554c0 2.107-.392 3.193-1.829 3.786-1.372.592-3.463.658-6.371.658-.166-1.15-.654-2.864-1.177-3.984 1.861.1 4.02.1 4.607.067.589 0 .817-.132.817-.626V29.78h-9.638V26.06h18.067v3.718zm-19.21-13.1c-2.354 3.094-5.882 6.484-8.985 8.657-.49-.856-1.47-2.436-2.156-3.193 2.71-1.744 5.814-4.707 7.383-7.011l3.758 1.547zm1.208 7.012c-.98 1.677-2.188 3.39-3.497 5.035v17.183h-3.887v-12.87c-.914.887-1.797 1.711-2.678 2.435-.557-.79-1.864-2.568-2.647-3.39 3.332-2.305 6.893-6.123 8.984-9.844l3.725 1.451z"/>
        </g>
    </g>
</svg>
