<svg xmlns="http://www.w3.org/2000/svg" width="24" height="21" viewBox="0 0 24 21">
    <g fill="none" fill-rule="evenodd">
        <path d="M0-2h24v24H0z"/>
        <g fill="#FFF">
            <path d="M16.127 7.142c-2.144.112-4.01.766-5.524 2.243-1.53 1.493-2.228 3.322-2.037 5.589-.838-.105-1.602-.22-2.37-.285-.265-.022-.58.01-.804.137-.746.423-1.46.901-2.308 1.434.155-.708.256-1.327.434-1.922.131-.438.07-.682-.33-.967C.612 11.543-.473 8.808.34 5.991 1.09 3.386 2.936 1.805 5.444.981c3.422-1.124 7.268.023 9.35 2.756a6.46 6.46 0 0 1 1.333 3.405zm-9.87-.878c.02-.515-.425-.98-.952-.995a.963.963 0 0 0-1 .934.952.952 0 0 0 .94.99.979.979 0 0 0 1.011-.93zm5.15-.995c-.53.01-.977.463-.968.98.01.536.449.956.993.949a.95.95 0 0 0 .954-.978.956.956 0 0 0-.98-.951z"/>
            <path d="M20.946 20.588c-.68-.304-1.302-.76-1.966-.83-.66-.07-1.355.314-2.046.385-2.106.217-3.992-.373-5.548-1.82-2.958-2.752-2.535-6.97.888-9.226 3.041-2.004 7.503-1.336 9.647 1.445 1.872 2.426 1.652 5.648-.633 7.686-.661.59-.899 1.076-.475 1.853.078.144.087.326.133.507zm-7.73-7.527a.803.803 0 0 0 .005-1.607.816.816 0 0 0-.808.832.808.808 0 0 0 .802.775zm4.983-1.605a.801.801 0 0 0-.793.768.79.79 0 1 0 1.575.069.796.796 0 0 0-.782-.837z"/>
        </g>
    </g>
</svg>
